HIERARCHY
ROOT Hips
{
 OFFSET 0.000000 0.000000 0.000000
 CHANNELS 6 Xposition Yposition Zposition Yrotation Xrotation Zrotation
 JOINT Chest
 {
  OFFSET 0.000000 9.585900 0.002600
  CHANNELS 3 Yrotation Xrotation Zrotation
  JOINT Chest2
  {
   OFFSET 0.000000 9.601200 -0.005300
   CHANNELS 3 Yrotation Xrotation Zrotation
   JOINT Chest3
   {
    OFFSET 0.000000 9.561800 0.000000
    CHANNELS 3 Yrotation Xrotation Zrotation
    JOINT Chest4
    {
     OFFSET 0.000000 9.552100 0.000000
     CHANNELS 3 Yrotation Xrotation Zrotation
     JOINT Neck
     {
      OFFSET 0.000000 14.453000 0.000000
      CHANNELS 3 Yrotation Xrotation Zrotation
      JOINT Head
      {
       OFFSET 0.000000 8.936500 -0.011300
       CHANNELS 3 Yrotation Xrotation Zrotation
       End Site
       {
        OFFSET 0.000000 17.073600 -0.006000
       }
      }
     }
     JOINT RightCollar
     {
      OFFSET -2.921100 9.558500 0.000000
      CHANNELS 3 Yrotation Xrotation Zrotation
      JOINT RightShoulder
      {
       OFFSET -13.519700 0.000000 0.000000
       CHANNELS 3 Yrotation Xrotation Zrotation
       JOINT RightElbow
       {
        OFFSET 0.000000 -29.696600 0.000000
        CHANNELS 3 Yrotation Xrotation Zrotation
        JOINT RightWrist
        {
         OFFSET 0.000000 -24.004700 0.000000
         CHANNELS 3 Yrotation Xrotation Zrotation
         End Site
         {
          OFFSET 0.000000 -17.728500 0.000000
         }
        }
       }
      }
     }
     JOINT LeftCollar
     {
      OFFSET 2.921100 9.558500 0.000000
      CHANNELS 3 Yrotation Xrotation Zrotation
      JOINT LeftShoulder
      {
       OFFSET 13.519700 0.000000 0.000000
       CHANNELS 3 Yrotation Xrotation Zrotation
       JOINT LeftElbow
       {
        OFFSET 0.000000 -29.696600 0.000000
        CHANNELS 3 Yrotation Xrotation Zrotation
        JOINT LeftWrist
        {
         OFFSET 0.000000 -24.004700 0.000000
         CHANNELS 3 Yrotation Xrotation Zrotation
         End Site
         {
          OFFSET 0.000000 -17.728500 0.000000
         }
        }
       }
      }
     }
    }
   }
  }
 }
 JOINT RightHip
 {
  OFFSET -7.771700 -0.012900 -0.001300
  CHANNELS 3 Yrotation Xrotation Zrotation
  JOINT RightKnee
  {
   OFFSET 0.000000 -40.869800 0.001200
   CHANNELS 3 Yrotation Xrotation Zrotation
   JOINT RightAnkle
   {
    OFFSET 0.000000 -39.717900 0.002100
    CHANNELS 3 Yrotation Xrotation Zrotation
    JOINT RightToe
    {
     OFFSET 0.000000 -4.965400 11.033500
     CHANNELS 3 Yrotation Xrotation Zrotation
     End Site
     {
      OFFSET 0.000000 -1.423100 5.872300
     }
    }
   }
  }
 }
 JOINT LeftHip
 {
  OFFSET 7.771700 -0.012900 -0.001300
  CHANNELS 3 Yrotation Xrotation Zrotation
  JOINT LeftKnee
  {
   OFFSET 0.000000 -40.869800 0.001200
   CHANNELS 3 Yrotation Xrotation Zrotation
   JOINT LeftAnkle
   {
    OFFSET 0.000000 -39.717900 0.002100
    CHANNELS 3 Yrotation Xrotation Zrotation
    JOINT LeftToe
    {
     OFFSET 0.000000 -4.965400 11.033500
     CHANNELS 3 Yrotation Xrotation Zrotation
     End Site
     {
      OFFSET 0.000000 -1.423100 5.872300
     }
    }
   }
  }
 }
}
MOTION
Frames: 16
Frame Time: 0.008333
0.000000 85.388000 0.000000 0.000000 -5.767877 0.000000 0.000000 11.653817 0.000000 0.000000 -5.885947 0.000000 0.000000 -0.000000 0.000000 0.000000 -0.000000 0.000000 0.000000 12.528835 0.000000 0.000000 0.711642 0.000000 0.000000 -0.000000 0.000000 0.000000 0.000000 -90.000000 0.000000 -2.309062 0.000000 0.000000 2.309062 0.000000 0.000000 -0.000000 0.000000 0.000000 -0.000000 90.000000 0.000000 -2.309062 0.000000 0.000000 2.309062 0.000000 0.000000 8.520406 0.000000 0.000000 1.905762 0.000000 -0.000000 -4.658285 0.000000 0.000000 -0.000000 0.000000 0.000000 8.520406 0.000000 0.000000 1.905762 0.000000 -0.000000 -4.658285 0.000000 0.000000 -0.000000 0.000000
-233.905256 60.667435 -73.283935 158.531611 -19.749559 1.528174 3.185589 15.836245 0.715188 0.291547 1.576301 0.034375 0.512130 2.597194 0.074175 2.789273 14.024498 0.658948 3.881677 21.391291 -1.039030 4.417538 -2.827588 -2.007763 6.681008 3.248580 -3.232939 13.271161 -15.791086 -12.861323 48.433029 -57.479451 -37.237053 9.410222 1.966385 -36.629074 -12.229872 -3.050229 -5.627443 -4.113119 -40.919989 12.399222 110.320739 -57.165514 -141.819656 0.499689 -9.078183 10.163341 -0.589531 -49.168029 5.317837 -22.336586 69.544159 -19.132342 -0.453932 -4.733111 -2.491377 -0.032787 -0.072779 0.005907 11.723685 -49.499426 -0.139719 26.304003 66.525509 26.456796 -16.158872 -16.455126 0.608664 0.050026 0.044760 -0.018245
-233.909440 60.666401 -73.286498 158.521893 -19.759845 1.531426 3.201606 15.831983 0.722159 0.293348 1.574965 0.034924 0.511503 2.598095 0.074344 2.793591 14.023262 0.661670 3.854293 21.290822 -0.999000 4.376751 -2.947228 -1.957748 6.677377 3.242144 -3.217038 13.272598 -15.786768 -12.864184 48.409744 -57.470776 -37.212906 9.398189 1.953923 -36.612695 -12.224839 -3.030782 -5.638582 -4.053772 -40.863333 12.394349 110.360882 -57.334523 -141.731879 0.452801 -9.013935 10.226927 -0.524638 -49.166219 5.289674 -22.361282 69.547318 -19.150106 -0.460321 -4.699378 -2.464039 -0.047333 -0.102988 -0.002239 11.753105 -49.495381 -0.150160 26.292768 66.537474 26.448592 -16.094769 -16.475970 0.603945 0.107059 0.068431 0.007806
-233.911096 60.664850 -73.287358 158.520203 -19.766144 1.511880 3.214717 15.825116 0.749558 0.295201 1.571244 0.034315 0.511437 2.601812 0.075712 2.799635 14.022562 0.664468 3.827029 21.188978 -0.959676 4.336110 -3.068246 -1.908555 6.673899 3.233424 -3.199815 13.271958 -15.793174 -12.860770 48.358641 -57.494259 -37.160582 9.423689 1.967004 -36.597189 -12.232899 -3.017625 -5.646003 -3.977547 -40.801887 12.392391 110.414912 -57.525262 -141.641972 0.400402 -8.937802 10.277669 -0.513572 -49.164076 5.303808 -22.372886 69.549559 -19.156664 -0.470281 -4.696825 -2.455104 -0.052625 -0.104352 -0.002471 11.742580 -49.495478 -0.126274 26.282912 66.545757 26.436316 -16.012231 -16.483226 0.600961 0.141740 0.077451 0.025376
-233.918006 60.663558 -73.290933 158.519218 -19.776434 1.527043 3.214199 15.831101 0.737756 0.303526 1.558175 0.040493 0.508108 2.610286 0.073474 2.806875 14.021280 0.668019 3.799216 21.087223 -0.922100 4.295342 -3.188885 -1.861117 6.663702 3.234346 -3.192889 13.272158 -15.820235 -12.844291 48.329001 -57.479507 -37.124975 9.422133 1.963425 -36.583966 -12.221007 -3.000762 -5.658666 -3.921694 -40.740941 12.398336 110.478685 -57.740393 -141.545794 0.344916 -8.852039 10.303269 -0.469853 -49.158393 5.266518 -22.368584 69.556915 -19.152062 -0.486168 -4.705028 -2.448476 -0.051080 -0.098907 0.000136 11.763917 -49.483364 -0.142968 26.264217 66.554140 26.412150 -16.064165 -16.483976 0.603956 0.121767 0.080477 0.039813
-233.923957 60.662049 -73.293402 158.525841 -19.782200 1.533516 3.209050 15.832996 0.731622 0.301977 1.560265 0.039803 0.514894 2.602190 0.080470 2.813471 14.018753 0.671976 3.770325 20.988900 -0.886765 4.254157 -3.305268 -1.815934 6.653459 3.238276 -3.187717 13.268129 -15.823443 -12.841941 48.318598 -57.493741 -37.114283 9.422434 1.964407 -36.570150 -12.210050 -2.980502 -5.668985 -3.854542 -40.679423 12.397497 110.544539 -57.981472 -141.442520 0.282217 -8.760443 10.296609 -0.439275 -49.157076 5.238650 -22.385480 69.561334 -19.162515 -0.509604 -4.737463 -2.450617 -0.030711 -0.069775 0.008405 11.772281 -49.476748 -0.145827 26.239232 66.568485 26.368784 -16.136088 -16.464585 0.630639 0.041324 0.061100 0.030065
-233.927599 60.660590 -73.294923 158.524460 -19.787214 1.530583 3.216406 15.828902 0.745167 0.302692 1.559635 0.040153 0.517385 2.599917 0.082215 2.818111 14.015448 0.676473 3.740636 20.895080 -0.854135 4.212755 -3.416144 -1.773584 6.646731 3.235450 -3.174308 13.264662 -15.814852 -12.848563 48.316059 -57.506917 -37.112279 9.431057 1.978493 -36.558385 -12.194111 -2.957633 -5.677908 -3.782447 -40.613126 12.389897 110.612715 -58.248991 -141.335425 0.210189 -8.660557 10.254029 -0.417741 -49.155995 5.235653 -22.412385 69.562768 -19.183826 -0.524016 -4.739428 -2.450293 -0.019195 -0.070330 0.009005 11.782525 -49.475283 -0.142604 26.223987 66.577512 26.354916 -16.187118 -16.468051 0.636531 0.015301 0.063119 0.029245
-233.931922 60.659814 -73.297903 158.526873 -19.799752 1.536810 3.221361 15.832141 0.749932 0.303044 1.559111 0.040525 0.511626 2.603586 0.078984 2.825726 14.004392 0.688168 3.709998 20.805289 -0.824968 4.171165 -3.522185 -1.734752 6.644950 3.233720 -3.161808 13.274627 -15.818303 -12.855182 48.290091 -57.488053 -37.093230 9.429839 1.982575 -36.552644 -12.144968 -2.920060 -5.689382 -3.737993 -40.549518 12.382650 110.688081 -58.542297 -141.224544 0.129955 -8.548980 10.166849 -0.404298 -49.147623 5.229769 -22.429105 69.566683 -19.211446 -0.538927 -4.742285 -2.444586 -0.013944 -0.070792 0.012255 11.806444 -49.460940 -0.161067 26.207368 66.581181 26.343888 -16.227119 -16.473550 0.638750 0.003323 0.066876 0.031500
-233.938329 60.659048 -73.300662 158.525032 -19.807175 1.559189 3.222222 15.828620 0.740533 0.303262 1.558069 0.041160 0.508618 2.609533 0.073700 2.831756 13.993469 0.699590 3.678206 20.718763 -0.798804 4.129144 -3.624279 -1.698854 6.647092 3.235287 -3.144793 13.274824 -15.821143 -12.857674 48.289399 -57.464992 -37.091978 9.415191 1.963585 -36.552732 -12.145633 -2.901333 -5.706819 -3.643661 -40.462424 12.386951 110.775127 -58.866040 -141.110494 0.044583 -8.427283 10.030046 -0.376316 -49.144163 5.204570 -22.424405 69.569199 -19.225845 -0.555723 -4.743298 -2.435100 -0.013347 -0.069778 0.013536 11.870871 -49.444879 -0.205082 26.165218 66.587216 26.301943 -16.318727 -16.482301 0.655961 0.021513 0.074631 0.042250
-233.942014 60.658482 -73.302205 158.528058 -19.815520 1.565574 3.220795 15.825264 0.744341 0.303359 1.557506 0.041922 0.508891 2.608455 0.074845 2.836258 13.986631 0.705220 3.644342 20.635450 -0.774909 4.085547 -3.722515 -1.664937 6.667410 3.217831 -3.099377 13.257656 -15.797692 -12.878716 48.321666 -57.476936 -37.124264 9.423080 1.991240 -36.543088 -12.120438 -2.871200 -5.717031 -3.572594 -40.372204 12.384342 110.877288 -59.227237 -140.994879 -0.043454 -8.300442 9.847829 -0.371184 -49.137659 5.196158 -22.434957 69.571022 -19.243807 -0.559112 -4.745964 -2.434119 -0.012196 -0.069116 0.017189 11.884094 -49.434442 -0.216753 26.160602 66.587766 26.295815 -16.345781 -16.484018 0.661894 0.028403 0.075405 0.038574
-233.945057 60.658316 -73.303762 158.532763 -19.827976 1.570981 3.221833 15.823824 0.749316 0.303264 1.556552 0.042443 0.508716 2.607221 0.075854 2.840529 13.978367 0.713515 3.607717 20.555085 -0.753959 4.039750 -3.817248 -1.633601 6.661547 3.234888 -3.096683 13.257953 -15.809940 -12.861843 48.329224 -57.445269 -37.133046 9.424567 1.985509 -36.541851 -12.054238 -2.822244 -5.725759 -3.550566 -40.282437 12.384675 111.000195 -59.628511 -140.878190 -0.133991 -8.170147 9.626401 -0.373608 -49.127317 5.197442 -22.456890 69.571345 -19.276588 -0.567264 -4.746874 -2.435261 -0.004114 -0.070399 0.022555 11.893909 -49.420284 -0.226423 26.157311 66.587313 26.290854 -16.355060 -16.484313 0.662147 0.008868 0.076110 0.033230
-233.949461 60.658120 -73.304795 158.540659 -19.837305 1.584418 3.225348 15.799078 0.758394 0.303481 1.555167 0.043713 0.500604 2.621057 0.067296 2.839757 13.981479 0.716207 3.574451 20.469608 -0.731909 3.994183 -3.909713 -1.606136 6.661719 3.246017 -3.092261 13.252128 -15.819602 -12.845150 48.354536 -57.438384 -37.165051 9.433116 2.002614 -36.529926 -12.043872 -2.799005 -5.739761 -3.487345 -40.164447 12.412891 111.160346 -60.067032 -140.771846 -0.227456 -8.027485 9.378957 -0.377957 -49.118933 5.185058 -22.453910 69.572641 -19.286744 -0.571460 -4.748052 -2.435376 -0.002310 -0.070748 0.020974 11.919281 -49.407156 -0.248103 26.149225 66.584116 26.269356 -16.366464 -16.473060 0.668107 0.001841 0.071896 0.035736
-233.948819 60.657740 -73.303063 158.541835 -19.844657 1.568170 3.231402 15.800616 0.779294 0.303445 1.554934 0.043886 0.515459 2.581103 0.095461 2.818362 14.021397 0.691722 3.560110 20.423749 -0.719455 3.938789 -4.052022 -1.567017 6.700072 3.210965 -3.038638 13.230271 -15.791807 -12.858878 48.390921 -57.449084 -37.221011 9.449349 2.043643 -36.504921 -12.026720 -2.787678 -5.743530 -3.434517 -40.033034 12.455821 111.370257 -60.540408 -140.686064 -0.327739 -7.860674 9.132365 -0.423893 -49.110279 5.229867 -22.441219 69.570947 -19.293277 -0.568895 -4.743857 -2.433865 -0.005662 -0.073450 0.013126 11.910889 -49.404001 -0.229697 26.171732 66.581531 26.282523 -16.238819 -16.475439 0.673820 0.034411 0.074399 0.026532
-233.948177 60.657907 -73.302447 158.539283 -19.861580 1.557191 3.241137 15.796177 0.810476 0.303244 1.554132 0.044477 0.518825 2.579646 0.094232 2.815152 14.018703 0.698953 3.520370 20.323205 -0.701685 3.897189 -4.111209 -1.552121 6.711156 3.215603 -3.020462 13.232880 -15.790119 -12.858514 48.385853 -57.422349 -37.234520 9.456152 2.055678 -36.495949 -11.999046 -2.755358 -5.761455 -3.409460 -39.893868 12.508160 111.632187 -61.053268 -140.615295 -0.442840 -7.665889 8.913499 -0.453623 -49.090840 5.256941 -22.442884 69.564599 -19.304055 -0.552294 -4.737312 -2.434945 -0.011085 -0.076389 0.012207 11.912692 -49.390494 -0.219226 26.187538 66.581049 26.294732 -16.106777 -16.479619 0.677033 0.069926 0.076396 0.023254
-233.951602 60.658453 -73.303771 158.532000 -19.883344 1.575714 3.252562 15.798062 0.812077 0.306935 1.542717 0.051550 0.514156 2.590065 0.089626 2.837157 13.985974 0.728111 3.459259 20.304486 -0.715194 3.842824 -4.219926 -1.525029 6.695075 3.250100 -3.012076 13.228635 -15.788485 -12.853539 48.390582 -57.379585 -37.242944 9.458116 2.059942 -36.493066 -11.990490 -2.696130 -5.796628 -3.404324 -39.748620 12.570557 111.939001 -61.612598 -140.545682 -0.576486 -7.443508 8.727301 -0.451883 -49.066125 5.240830 -22.412041 69.565797 -19.283843 -0.543616 -4.715009 -2.437813 -0.016354 -0.098254 0.007768 11.950996 -49.365566 -0.244019 26.169302 66.583048 26.283537 -16.128525 -16.505403 0.668487 0.103932 0.101335 0.043728
-233.954511 60.658712 -73.303871 158.541700 -19.901579 1.583440 3.246588 15.796791 0.815633 0.309169 1.537629 0.060545 0.508944 2.604575 0.077764 2.849036 13.972691 0.749303 3.422986 20.280613 -0.727041 3.784989 -4.354630 -1.494544 6.695292 3.251587 -2.994672 13.222770 -15.790644 -12.853983 48.389244 -57.364927 -37.252838 9.468753 2.074546 -36.481086 -11.961664 -2.664034 -5.810574 -3.401955 -39.601304 12.634449 112.259040 -62.215984 -140.459526 -0.724830 -7.193982 8.566105 -0.464318 -49.047338 5.226811 -22.392019 69.569645 -19.269147 -0.542377 -4.742982 -2.440085 -0.014411 -0.071902 0.004699 11.968089 -49.345189 -0.256683 26.137171 66.585920 26.253999 -16.173393 -16.479465 0.674796 0.054702 0.076660 0.038858
